<svg width="0" height="0">
  <defs>
    <clipPath id="hearts">
      <path d="M56.9,6.8c0,0-1.2-5.3-7.4-5.3s-8.9,6.9-7.2,11.7s4.8,7.1,8.3,9.7s5.9,4.5,6.1,5.6c0.4-1,6.1-5.2,8.4-7.4s6.3-6.2,6.8-9.9
        s-1.1-9.6-7.7-9.6S56.9,6.8,56.9,6.8z"/>
      <path d="M19.9,6.8c0,0-1.2-5.3-7.4-5.3S3.6,8.4,5.4,13.1s4.8,7.1,8.3,9.7s5.9,4.5,6.1,5.6c0.4-1,6.1-5.2,8.4-7.4s6.3-6.2,6.8-9.9
        s-1.1-9.6-7.7-9.6S19.9,6.8,19.9,6.8z"/>
      <path d="M93.9,6.8c0,0-1.2-5.3-7.4-5.3s-8.9,6.9-7.2,11.7s4.8,7.1,8.3,9.7s5.9,4.5,6.1,5.6c0.4-1,6.1-5.2,8.4-7.4s6.3-6.2,6.8-9.9
        s-1.1-9.6-7.7-9.6S93.9,6.8,93.9,6.8z"/>
    </clipPath>
  </defs>
</svg>
